<?xml version="1.0" encoding="utf-8"?>
<!-- Generator: Adobe Illustrator 24.2.3, SVG Export Plug-In . SVG Version: 6.00 Build 0)  -->
<svg version="1.1" id="Layer_1" xmlns="http://www.w3.org/2000/svg" xmlns:xlink="http://www.w3.org/1999/xlink" x="0px" y="0px"
	 viewBox="0 0 512 160" style="enable-background:new 0 0 512 160;" xml:space="preserve">
<style type="text/css">
	.st0{fill:#B161C7;}
	.st1{fill:#17C370;}
	.st2{fill:#1A8947;}
	.st3{fill:#1B1C1B;}
</style>
<polygon class="st0" points="53.9,54.3 53.9,54.3 53.9,155.9 104.6,155.9 "/>
<path class="st1" d="M53.9,3.1H3v152.7h50.9V105c28.1,0,50.9-22.8,50.9-50.9C104.8,25.9,82,3.1,53.9,3.1z"/>
<polygon class="st2" points="53.9,54.3 53.9,54.3 53.9,155.9 104.6,155.9 "/>
<g>
	<path class="st3" d="M140.9,129.6V48.9h34.3c4.6,0,8.9,1.1,12.7,3.4c3.9,2.3,7,5.3,9.3,9.2c2.3,3.9,3.5,8.2,3.5,13.1
		c0,4.4-1.2,8.5-3.5,12.2c-2.3,3.8-5.4,6.8-9.2,9c-3.8,2.3-8.1,3.4-12.8,3.4h-21.9v30.3H140.9z M153.3,87.3h23c2.2,0,4.2-0.6,6-1.7
		c1.8-1.1,3.1-2.6,4.1-4.6c1-2,1.5-4.1,1.5-6.5c0-2.7-0.6-5.1-1.9-7.1c-1.3-2-3-3.6-5.3-4.8c-2.3-1.2-4.8-1.7-7.7-1.7h-19.8V87.3z
		 M188.8,129.6l-20.5-36.4l12.8-2.9l22.8,39.4L188.8,129.6z"/>
	<path class="st3" d="M242.9,130.8c-5.9,0-11.2-1.4-15.8-4.1c-4.6-2.7-8.3-6.5-11-11.2c-2.7-4.7-4-10.1-4-16.2
		c0-6.1,1.3-11.5,4-16.2c2.7-4.7,6.4-8.4,11-11.2c4.6-2.7,9.9-4.1,15.8-4.1c5.8,0,11.1,1.4,15.7,4.1c4.6,2.7,8.3,6.5,11,11.2
		c2.7,4.7,4,10.1,4,16.2c0,6.1-1.3,11.5-4,16.2c-2.7,4.7-6.4,8.5-11,11.2C253.9,129.4,248.7,130.8,242.9,130.8z M242.9,119.9
		c3.6,0,6.8-0.9,9.7-2.7c2.8-1.8,5.1-4.3,6.7-7.4c1.6-3.1,2.4-6.6,2.3-10.5c0.1-4-0.7-7.5-2.3-10.7c-1.6-3.1-3.8-5.5-6.7-7.3
		c-2.8-1.8-6.1-2.6-9.7-2.6c-3.6,0-6.9,0.9-9.7,2.7c-2.9,1.8-5.1,4.3-6.7,7.4c-1.6,3.1-2.4,6.6-2.3,10.5c-0.1,3.9,0.7,7.4,2.3,10.5
		c1.6,3.1,3.9,5.6,6.7,7.4C236,119,239.2,119.9,242.9,119.9z"/>
	<path class="st3" d="M313.7,130.8c-5.9,0-11.2-1.4-15.8-4.1c-4.6-2.7-8.3-6.5-11-11.2c-2.7-4.7-4-10.1-4-16.2
		c0-6.1,1.3-11.5,4-16.2c2.7-4.7,6.4-8.4,11-11.2c4.6-2.7,9.9-4.1,15.8-4.1c5.8,0,11.1,1.4,15.7,4.1c4.6,2.7,8.3,6.5,11,11.2
		c2.7,4.7,4,10.1,4,16.2c0,6.1-1.3,11.5-4,16.2c-2.7,4.7-6.4,8.5-11,11.2C324.8,129.4,319.6,130.8,313.7,130.8z M313.7,119.9
		c3.6,0,6.8-0.9,9.7-2.7c2.8-1.8,5.1-4.3,6.7-7.4c1.6-3.1,2.4-6.6,2.3-10.5c0.1-4-0.7-7.5-2.3-10.7c-1.6-3.1-3.8-5.5-6.7-7.3
		c-2.8-1.8-6.1-2.6-9.7-2.6c-3.6,0-6.9,0.9-9.7,2.7c-2.9,1.8-5.1,4.3-6.7,7.4c-1.6,3.1-2.4,6.6-2.3,10.5c-0.1,3.9,0.7,7.4,2.3,10.5
		c1.6,3.1,3.9,5.6,6.7,7.4C306.9,119,310.1,119.9,313.7,119.9z"/>
	<path class="st3" d="M357.4,129.6V44.3h11.9v85.3H357.4z M368.2,110.7l-0.6-12.9l28.9-28.7h16L368.2,110.7z M398.2,129.6L375.4,103
		l8.4-7.7l29.6,34.3H398.2z"/>
	<path class="st3" d="M430.6,55.7c-2.5,0-4.5-0.7-5.9-2c-1.4-1.3-2.1-3.1-2.1-5.5c0-2.2,0.7-4,2.1-5.4c1.4-1.4,3.4-2.1,5.8-2.1
		c2.5,0,4.5,0.7,5.9,2c1.4,1.3,2.1,3.2,2.1,5.5c0,2.2-0.7,4-2.1,5.4C435,55,433,55.7,430.6,55.7z M424.8,129.6V69.1h11.9v60.5H424.8
		z"/>
	<path class="st3" d="M483.1,130.8c-6.2,0-11.7-1.3-16.5-4c-4.8-2.7-8.6-6.3-11.3-10.9c-2.7-4.6-4.1-9.9-4.1-15.9
		c0-4.8,0.8-9.1,2.3-13c1.5-3.9,3.7-7.3,6.4-10.2c2.7-2.9,6-5.1,9.8-6.7c3.8-1.6,7.9-2.4,12.4-2.4c3.9,0,7.6,0.7,10.9,2.2
		c3.4,1.5,6.3,3.6,8.8,6.2c2.5,2.6,4.4,5.7,5.8,9.3c1.3,3.6,2,7.5,1.9,11.7l-0.1,5.1h-49.4l-2.7-9.4h41.8l-1.7,2v-2.8
		c-0.2-2.5-1.1-4.8-2.5-6.8c-1.5-2-3.3-3.6-5.5-4.7c-2.2-1.2-4.6-1.7-7.3-1.7c-4.1,0-7.6,0.8-10.5,2.4c-2.8,1.6-5,3.9-6.5,6.9
		c-1.5,3-2.2,6.8-2.2,11.2c0,4.2,0.9,7.9,2.7,11c1.8,3.1,4.3,5.5,7.5,7.2c3.2,1.7,7,2.5,11.2,2.5c3,0,5.8-0.5,8.4-1.5
		c2.6-1,5.4-2.8,8.4-5.4l6,8.4c-1.8,1.8-4.1,3.5-6.7,4.8c-2.7,1.4-5.5,2.5-8.4,3.3C488.8,130.3,485.9,130.8,483.1,130.8z"/>
</g>
</svg>
